# AST/ASF file generated using VICON BodyLanguage
# -----------------------------------------------
:version 1.10
:name VICON
:units
  mass 1.0
  length 0.45
  angle deg
:documentation
   .ast/.asf automatically generated from VICON data using
   VICON BodyBuilder and BodyLanguage model FoxedUp or BRILLIANT.MOD
:root
   order TX TY TZ RX RY RZ
   axis XYZ
   position 0 0 0  
   orientation 0 0 0 
:bonedata
  begin
     id 1 
     name lhipjoint
     direction 0.660183 -0.676772 0.325788 
     length 2.75133 
     axis 0 0 0  XYZ
  end
  begin
     id 2 
     name lfemur
     direction 0.34202 -0.939693 0  
     length 7.70317  
     axis 0 0 20  XYZ
    dof rx ry rz
    limits (-160.0 20.0)
           (-70.0 70.0)
           (-60.0 70.0)
  end
  begin
     id 3 
     name ltibia
     direction 0.342105 -0.939662 0   
     length 7.18701   
     axis 0 0 20   XYZ
    dof rx
    limits (-10.0 170.0)
  end
  begin
     id 4 
     name lfoot
     direction 0.14163 -0.389126 0.910232   
     length 2.41719   
     axis -90 7.62852e-016 20   XYZ
    dof rx rz
    limits (-45.0 90.0)
           (-70.0 20.0)
  end
  begin
     id 5 
     name ltoes
     direction 1.53533e-011 -4.21926e-011 1   
     length 1.18611   
     axis -90 7.62852e-016 20   XYZ
    dof rx
    limits (-90.0 20.0)
  end
  begin
     id 6 
     name rhipjoint
     direction -0.6658 -0.67229 0.323631   
     length 2.76968  
     axis 0 0 0  XYZ 
  end
  begin
     id 7 
     name rfemur
     direction -0.34202 -0.939693 0   
     length 7.92547   
     axis 0 0 -20   XYZ
    dof rx ry rz
    limits (-160.0 20.0)
           (-70.0 70.0)
           (-70.0 60.0)
  end
  begin
     id 8 
     name rtibia
     direction -0.342022 -0.939692 0   
     length 7.22641   
     axis 0 0 -20   XYZ
    dof rx
    limits (-10.0 170.0)
 end
 begin
     id 9 
     name rfoot
     direction -0.105675 -0.29034 0.951071   
     length 2.48149  
     axis -90 -7.62852e-016 -20   XYZ
    dof rx rz
    limits (-45.0 90.0)
           (-20.0 70.0)
  end
  begin
     id 10 
     name rtoes
     direction -1.5349e-011 -4.21859e-011 1   
     length 1.23343   
     axis -90 -7.62852e-016 -20   XYZ
    dof rx
    limits (-90.0 20.0)
  end
  begin
     id 11 
     name lowerback
     direction 0.0104173 0.993624 -0.112266   
     length 2.00527   
     axis 0 0 0   XYZ
    dof rx ry rz
    limits (-20.0 45.0)
           (-30.0 30.0)
           (-30.0 30.0)
  end
  begin
     id 12 
     name upperback
     direction 0.00733149 0.999856 -0.0152913   
     length 2.01385   
     axis 0 0 0   XYZ
    dof rx ry rz
    limits (-20.0 45.0)
           (-30.0 30.0)
           (-30.0 30.0)
  end
  begin
     id 13 
     name thorax
     direction 0.0026304 0.999318 0.036841   
     length 2.03734   
     axis 0 0 0   XYZ
    dof rx ry rz
    limits (-20.0 45.0)
           (-30.0 30.0)
           (-30.0 30.0)
  end
  begin
     id 14 
     name lowerneck
     direction 0.0293154 0.998757 0.0403082   
     length 1.65303   
     axis 0 0 0   XYZ
    dof rx ry rz
    limits (-20.0 45.0)
           (-30.0 30.0)
           (-30.0 30.0)
  end
  begin
     id 15 
     name upperneck
     direction -0.0376619 0.998184 -0.0470083   
     length 1.60926   
     axis 0 0 0   XYZ
    dof rx ry rz
    limits (-20.0 45.0)
           (-30.0 30.0)
           (-30.0 30.0)
  end
  begin
     id 16
     name head
     direction -0.0170133 0.999635 -0.0209778  
     length 1.73625  
     axis 0 0 0   XYZ
    dof rx ry rz
    limits (-20.0 45.0)
           (-30.0 30.0)
           (-30.0 30.0)
  end
  begin
     id 17 
     name lclavicle
     direction 0.919857 0.39181 -0.0186333  
     length 3.75313  
     axis 0 0 0   XYZ
    dof ry rz
    limits (-20.0 10.0)
           (0.0 20.0)
  end
  begin
     id 18 
     name lhumerus
     direction 1 -4.48988e-011 1.44029e-027   
     length 5.49313   
     axis 180 -30 -90   XYZ
    dof rx ry rz
    limits (-60.0 90.0)
           (-90.0 90.0)
           (-90.0 90.0)
  end
  begin
     id 19
     name lradius
     direction 1 -4.48924e-011 7.46281e-027   
     length 3.29037   
     axis 180 -30 -90   XYZ
    dof rx
    limits (-10.0 170.0)
  end
  begin
     id 20
     name lwrist
     direction 1 -4.48955e-011 2.19879e-026   
     length 1.64519   
     axis -1.34358e-014 90 90   XYZ
    dof ry
    limits (-180.0 0.0)
 end
  begin
     id 21 
     name lhand
     direction 1 -4.48978e-011 4.39747e-026   
     length 0.729656   
     axis -2.80598e-014 90 90   XYZ
    dof rx rz
    limits (-90.0 90.0)
           (-45.0 45.0)
  end
  begin
     id 22 
     name lfingers
     direction 1 -4.49071e-011 8.79411e-026   
     length 0.588268   
     axis -5.61193e-014 90 90   XYZ
    dof rx
    limits (0.0 90.0)
  end
  begin
     id 23
     name lthumb
     direction 0.707107 -6.34817e-011 0.707107   
     length 0.844638   
     axis -90 45 -9.86923e-015   XYZ
    dof rx rz
    limits (-45.0 45.0)
           (-45.0 45.0)
  end
  begin
     id 24 
     name rclavicle
     direction -0.919898 0.388279 0.0550233   
     length 3.7171  
     axis 0 0 0   XYZ 
    dof ry rz
    limits (-10.0 20.0)
           (-20.0 0.0)
  end
  begin
     id 25 
     name rhumerus
     direction -1 -4.48968e-011 9.98372e-028  
     length 5.23684   
     axis 180 30 90   XYZ
    dof rx ry rz
    limits (-90.0 60.0)
           (-90.0 90.0)
           (-90.0 90.0)
  end
  begin
     id 26 
     name rradius
     direction -1 -4.48956e-011 1.01023e-026   
     length 3.38251   
     axis 180 30 90   XYZ
    dof rx
    limits (-10.0 170.0)
  end
  begin
     id 27 
     name rwrist
     direction -1 -4.4892e-011 2.19886e-026   
     length 1.69126   
     axis -1.34358e-014 -90 -90   XYZ
    dof ry
    limits (-180.0 0.0)
  end
  begin
     id 28
     name rhand
     direction -1 -4.49024e-011 4.39727e-026   
     length 0.691454   
     axis -2.80598e-014 -90 -90   XYZ
    dof rx rz
    limits (-90.0 90.0)
           (-45.0 45.0)
  end
  begin
     id 29
     name rfingers
     direction -1 -4.49097e-011 8.79388e-026   
     length 0.557468   
     axis -5.61193e-014 -90 -90   XYZ
    dof rx
    limits (0.0 90.0)
  end
  begin
     id 30
     name rthumb
     direction -0.707107 -6.34938e-011 0.707107   
     length 0.800416   
     axis -90 -45 9.86923e-015   XYZ
    dof rx rz
    limits (-45.0 45.0)
           (-45.0 45.0)
  end
:hierarchy
  begin
    root lhipjoint rhipjoint lowerback
    lhipjoint lfemur
    lfemur ltibia
    ltibia lfoot
    lfoot ltoes
    rhipjoint rfemur
    rfemur rtibia
    rtibia rfoot
    rfoot rtoes
    lowerback upperback
    upperback thorax
    thorax lowerneck lclavicle rclavicle
    lowerneck upperneck
    upperneck head
    lclavicle lhumerus
    lhumerus lradius
    lradius lwrist
    lwrist lhand lthumb
    lhand lfingers
    rclavicle rhumerus
    rhumerus rradius
    rradius rwrist
    rwrist rhand rthumb
    rhand rfingers
  end

#!OML:ASF H:\BabyWalks\Project 1\Capture day 1\Session 1\baby.ASF
:FULLY-SPECIFIED
:DEGREES
56
root -35.3503 17.489 15.4561 1.30896 69.7153 -1.39319
lowerback 16.3571 -1.25771 1.11959
upperback 6.24766 -1.05857 3.32956
thorax -2.47347 -0.425161 3.0577
lowerneck -2.00781 5.97961 1.68929
upperneck -0.96507 8.05248 -9.70337
head 0.551505 4.03253 -3.28362
rclavicle 1.23246e-014 8.74653e-015
rhumerus -48.7913 25.7687 -88.8414
rradius 40.0567
rwrist 1.68596
rhand -11.817 -14.0715
rfingers 7.12502
rthumb 14.2334 -43.5638
lclavicle 1.23246e-014 8.74653e-015
lhumerus -50.6978 -0.0476711 83.3731
lradius 47.1532
lwrist 1.5154
lhand -3.06901 12.0042
lfingers 7.12502
lthumb 22.6477 40.6954
rfemur -0.487465 12.5367 22.4404
rtibia 23.3238
rfoot -22.2896 -9.11887
rtoes -5.55477
lfemur -21.5893 3.14986 -15.9108
ltibia 34.9564
lfoot -16.3346 -3.69676
ltoes -0.34777
57
root -35.3654 17.4903 15.4678 1.16885 69.7875 -1.46584
lowerback 16.3974 -1.27155 1.15559
upperback 6.22165 -1.06907 3.33375
thorax -2.5224 -0.429776 3.04502
lowerneck -1.97243 5.98486 1.73036
upperneck -0.955429 8.05804 -9.67808
head 0.549385 4.03548 -3.28344
rclavicle -3.18055e-015 1.27222e-014
rhumerus -48.7844 25.8973 -88.8766
rradius 39.9148
rwrist 2.3525
rhand -11.8246 -14.1924
rfingers 7.12502
rthumb 14.226 -43.6852
lclavicle -3.18055e-015 1.27222e-014
lhumerus -50.8233 -0.255409 83.59
lradius 47.0966
lwrist 1.52678
lhand -2.99329 12.0193
lfingers 7.12502
lthumb 22.7204 40.7016
rfemur -0.402025 12.4272 22.532
rtibia 23.2385
rfoot -22.2354 -9.06304
rtoes -5.41718
lfemur -21.6155 2.92654 -15.725
ltibia 35.088
lfoot -16.4518 -4.06955
ltoes -0.654605
58
root -35.3788 17.4922 15.4791 0.966699 69.8727 -1.59555
lowerback 16.447 -1.29186 1.2114
upperback 6.19226 -1.08419 3.34218
thorax -2.57999 -0.436413 3.02675
lowerneck -1.9272 5.98507 1.77231
upperneck -0.960876 8.05558 -9.65018
head 0.54015 4.03511 -3.28334
rclavicle -7.95139e-016 3.65764e-014
rhumerus -48.7863 25.9907 -88.8879
rradius 39.7771
rwrist 2.93318
rhand -11.8277 -14.2684
rfingers 7.12502
rthumb 14.223 -43.7614
lclavicle -7.95139e-016 3.65764e-014
lhumerus -50.9681 -0.517314 83.8487
lradius 47.0372
lwrist 1.49812
lhand -2.87995 12.0454
lfingers 7.12502
lthumb 22.8292 40.7144
rfemur -0.277555 12.3048 22.6429
rtibia 23.1021
rfoot -22.163 -9.00574
rtoes -5.27859
lfemur -21.6267 2.62061 -15.508
ltibia 35.2255
lfoot -16.6369 -4.44845
ltoes -0.99385
59
root -35.3907 17.4937 15.4898 0.700118 69.967 -1.78579
lowerback 16.5013 -1.31636 1.28411
upperback 6.16243 -1.10143 3.35607
thorax -2.64061 -0.443902 3.00523
lowerneck -1.88083 5.98061 1.8237
upperneck -0.972716 8.04636 -9.62851
head 0.529 4.03154 -3.2874
rclavicle -2.50469e-014 1.19271e-014
rhumerus -48.7895 26.045 -88.8705
rradius 39.634
rwrist 3.43039
rhand -11.8367 -14.3061
rfingers 7.12502
rthumb 14.2144 -43.7997
lclavicle -2.50469e-014 1.19271e-014
lhumerus -51.1278 -0.82865 84.1485
lradius 46.9743
lwrist 1.40579
lhand -2.77871 12.017
lfingers 7.12502
lthumb 22.9263 40.6739
rfemur -0.120855 12.1735 22.774
rtibia 22.9268
rfoot -22.0778 -8.94663
rtoes -5.14347
lfemur -21.6252 2.26044 -15.2625
ltibia 35.3699
lfoot -16.8865 -4.85211
ltoes -1.37778
60
root -35.4008 17.4944 15.4999 0.368511 70.0696 -2.03859
lowerback 16.5581 -1.34511 1.37462
upperback 6.13243 -1.12078 3.37528
thorax -2.70295 -0.452251 2.97976
lowerneck -1.82747 5.97313 1.87805
upperneck -0.997115 8.03211 -9.6071
head 0.512458 4.02597 -3.29269
rclavicle -1.82882e-014 4.77083e-015
rhumerus -48.7879 26.0604 -88.8237
rradius 39.4902
rwrist 3.80731
rhand -11.8168 -14.3456
rfingers 7.12502
rthumb 14.2336 -43.8379
lclavicle -1.82882e-014 4.77083e-015
lhumerus -51.3023 -1.18672 84.4886
lradius 46.9075
lwrist 1.22868
lhand -2.69351 11.9292
lfingers 7.12502
lthumb 23.0081 40.576
rfemur 0.0621892 12.0325 22.924
rtibia 22.7212
rfoot -21.9821 -8.88252
rtoes -5.01281
lfemur -21.6136 1.86762 -14.9921
ltibia 35.5173
lfoot -17.1969 -5.28979
ltoes -1.79214
61
root -35.4092 17.4947 15.5092 -0.0146743 70.1787 -2.34554
lowerback 16.6053 -1.37668 1.47677
upperback 6.10715 -1.14185 3.39958
thorax -2.75531 -0.461368 2.95314
lowerneck -1.77926 5.96027 1.94865
upperneck -1.02984 8.01015 -9.59946
head 0.495088 4.01663 -3.30578
rclavicle 1.11319e-013 -6.36111e-014
rhumerus -48.77 26.0366 -88.7444
rradius 39.317
rwrist 4.10628
rhand -11.8422 -14.3024
rfingers 7.12502
rthumb 14.2091 -43.7964
lclavicle 1.11319e-013 -6.36111e-014
lhumerus -51.478 -1.58264 84.8641
lradius 46.8315
lwrist 0.958621
lhand -2.62929 11.7641
lfingers 7.12502
lthumb 23.0697 40.4032
rfemur 0.25643 11.8735 23.0857
rtibia 22.5005
rfoot -21.883 -8.80562
rtoes -4.88374
lfemur -21.596 1.44185 -14.7026
ltibia 35.6627
lfoot -17.556 -5.74677
ltoes -2.24591
62
root -35.4158 17.4946 15.5177 -0.456696 70.2902 -2.71668
lowerback 16.64 -1.40964 1.59172
upperback 6.08693 -1.16261 3.43097
thorax -2.79586 -0.470255 2.92636
lowerneck -1.7392 5.94386 2.02859
upperneck -1.06751 7.98319 -9.59862
head 0.477981 4.00469 -3.32283
rclavicle 2.0276e-014 2.3059e-014
rhumerus -48.7362 25.978 -88.6322
rradius 39.1506
rwrist 4.31546
rhand -11.8399 -14.312
rfingers 7.12502
rthumb 14.2112 -43.8059
lclavicle 2.0276e-014 2.3059e-014
lhumerus -51.6474 -2.00699 85.2718
lradius 46.7351
lwrist 0.587051
lhand -2.59191 11.5127
lfingers 7.12502
lthumb 23.1056 40.1473
rfemur 0.455866 11.7121 23.2642
rtibia 22.2737
rfoot -21.7834 -8.72683
rtoes -4.75504
lfemur -21.5714 0.996594 -14.3932
ltibia 35.7976
lfoot -17.9461 -6.20404
ltoes -2.73481
63
root -35.4206 17.4936 15.5251 -0.942782 70.4001 -3.14024
lowerback 16.6515 -1.44267 1.71883
upperback 6.07479 -1.18225 3.46593
thorax -2.8159 -0.478523 2.89552
lowerneck -1.69618 5.92406 2.10596
upperneck -1.12938 7.94993 -9.59081
head 0.451759 3.99034 -3.33774
rclavicle -8.66701e-014 3.81667e-014
rhumerus -48.6847 25.8874 -88.4916
rradius 38.9867
rwrist 4.45922
rhand -11.8201 -14.362
rfingers 7.12502
rthumb 14.2304 -43.8545
lclavicle -8.66701e-014 3.81667e-014
lhumerus -51.8099 -2.44944 85.7001
lradius 46.6298
lwrist 0.125919
lhand -2.48151 11.3038
lfingers 7.12502
lthumb 23.2115 39.925
rfemur 0.651453 11.547 23.4534
rtibia 22.0491
rfoot -21.6851 -8.64639
rtoes -4.6431
lfemur -21.5424 0.562927 -14.0729
ltibia 35.9123
lfoot -18.3432 -6.6661
ltoes -3.23073
64
root -35.4236 17.4921 15.5317 -1.4577 70.5019 -3.60168
lowerback 16.6514 -1.47297 1.84809
upperback 6.06245 -1.19828 3.50538
thorax -2.83008 -0.48509 2.86725
lowerneck -1.65756 5.90353 2.18477
upperneck -1.18742 7.91606 -9.58147
head 0.427446 3.97541 -3.3522
rclavicle 7.95139e-015 4.45278e-014
rhumerus -48.6293 25.7694 -88.3253
rradius 38.8316
rwrist 4.54479
rhand -11.7989 -14.4295
rfingers 7.12502
rthumb 14.2508 -43.9206
lclavicle 7.95139e-015 4.45278e-014
lhumerus -51.9907 -2.87717 86.1324
lradius 46.5451
lwrist -0.414682
lhand -2.36959 11.0285
lfingers 7.12502
lthumb 23.3189 39.6362
rfemur 0.841877 11.3897 23.6494
rtibia 21.827
rfoot -21.5904 -8.56905
rtoes -4.53439
lfemur -21.504 0.152751 -13.749
ltibia 35.9932
lfoot -18.743 -7.10377
ltoes -3.77084
65
root -35.4247 17.4899 15.5374 -1.98026 70.5885 -4.07963
lowerback 16.6375 -1.49836 1.97136
upperback 6.04905 -1.20952 3.54711
thorax -2.83818 -0.489497 2.84357
lowerneck -1.62484 5.88308 2.26631
upperneck -1.23383 7.88319 -9.57152
head 0.40799 3.96044 -3.36653
rclavicle 7.55382e-015 -2.22639e-014
rhumerus -48.5823 25.6312 -88.1376
rradius 38.6992
rwrist 4.6003
rhand -11.7639 -14.5049
rfingers 7.12502
rthumb 14.2846 -43.9935
lclavicle 7.55382e-015 -2.22639e-014
lhumerus -52.1825 -3.27592 86.5579
lradius 46.4706
lwrist -1.00016
lhand -2.18998 10.7824
lfingers 7.12502
lthumb 23.4912 39.3681
rfemur 1.02363 11.2447 23.8456
rtibia 21.6134
rfoot -21.5007 -8.49981
rtoes -4.44744
lfemur -21.4512 -0.214041 -13.4312
ltibia 36.0315
lfoot -19.1135 -7.50612
ltoes -4.2971
66
root -35.4239 17.4883 15.5423 -2.47506 70.6536 -4.53898
lowerback 16.6069 -1.51625 2.08089
upperback 6.0348 -1.21446 3.58553
thorax -2.83834 -0.491087 2.82254
lowerneck -1.59711 5.86327 2.34597
upperneck -1.2686 7.852 -9.5554
head 0.392818 3.94581 -3.378
rclavicle -9.54166e-015 5.56597e-015
rhumerus -48.5586 25.4826 -87.9402
rradius 38.6164
rwrist 4.63786
rhand -11.7384 -14.608
rfingers 7.12502
rthumb 14.3091 -44.0949
lclavicle -9.54166e-015 5.56597e-015
lhumerus -52.3831 -3.63318 86.9625
lradius 46.4127
lwrist -1.59217
lhand -1.94773 10.5604
lfingers 7.12502
lthumb 23.7235 39.1162
rfemur 1.19557 11.1173 24.0293
rtibia 21.4062
rfoot -21.4163 -8.43446
rtoes -4.37252
lfemur -21.3735 -0.548634 -13.1343
ltibia 36.0145
lfoot -19.4401 -7.82562
ltoes -4.79299
67
root -35.4204 17.4868 15.5467 -2.9271 70.6818 -4.95505
lowerback 16.552 -1.52224 2.17333
upperback 6.02801 -1.20879 3.61438
thorax -2.81794 -0.487662 2.79824
lowerneck -1.56827 5.84579 2.41936
upperneck -1.29587 7.82435 -9.52614
head 0.379146 3.9327 -3.38366
rclavicle 1.35174e-014 -3.33958e-014
rhumerus -48.5411 25.3156 -87.7305
rradius 38.5662
rwrist 4.68728
rhand -11.7132 -14.7102
rfingers 7.12502
rthumb 14.3333 -44.1954
lclavicle 1.35174e-014 -3.33958e-014
lhumerus -52.5825 -3.94337 87.3327
lradius 46.3713
lwrist -2.13935
lhand -1.64375 10.3671
lfingers 7.12502
lthumb 24.015 38.8848
rfemur 1.36806 11.0113 24.1939
rtibia 21.2066
rfoot -21.3405 -8.36489
rtoes -4.32552
lfemur -21.2522 -0.826516 -12.8707
ltibia 35.9375
lfoot -19.7168 -8.04368
ltoes -5.26071
68
root -35.4144 17.4856 15.5505 -3.30874 70.6732 -5.30042
lowerback 16.4752 -1.51475 2.24173
upperback 6.02429 -1.19169 3.63101
thorax -2.78289 -0.478949 2.77182
lowerneck -1.53034 5.83136 2.48258
upperneck -1.31252 7.80142 -9.4809
head 0.366361 3.92179 -3.38202
rclavicle 1.07344e-014 1.59028e-015
rhumerus -48.5147 25.1273 -87.5114
rradius 38.5009
rwrist 4.77002
rhand -11.7207 -14.7552
rfingers 7.12502
rthumb 14.3262 -44.241
lclavicle 1.07344e-014 1.59028e-015
lhumerus -52.7781 -4.20759 87.6656
lradius 46.3392
lwrist -2.60339
lhand -1.25884 10.234
lfingers 7.12502
lthumb 24.3841 38.7026
rfemur 1.5401 10.9266 24.3298
rtibia 21.0127
rfoot -21.269 -8.28783
rtoes -4.27994
lfemur -21.0862 -1.03367 -12.6546
ltibia 35.7975
lfoot -19.9338 -8.15651
ltoes -5.6723
69
root -35.4063 17.4848 15.5538 -3.60605 70.6325 -5.56268
lowerback 16.3747 -1.49719 2.28006
upperback 6.02494 -1.16868 3.63482
thorax -2.73057 -0.467705 2.74707
lowerneck -1.49619 5.82167 2.54411
upperneck -1.31125 7.78602 -9.4279
head 0.359995 3.914 -3.37678
rclavicle 3.02153e-014 -2.54444e-014
rhumerus -48.4674 24.9236 -87.283
rradius 38.4187
rwrist 4.88733
rhand -11.7436 -14.7514
rfingers 7.12502
rthumb 14.304 -44.2387
lclavicle 3.02153e-014 -2.54444e-014
lhumerus -52.9579 -4.42029 87.957
lradius 46.3077
lwrist -2.95328
lhand -0.810093 10.1705
lfingers 7.12502
lthumb 24.8142 38.5804
rfemur 1.70577 10.854 24.4313
rtibia 20.8317
rfoot -21.2089 -8.19548
rtoes -4.23141
lfemur -20.8834 -1.16067 -12.4945
ltibia 35.6041
lfoot -20.0839 -8.16432
ltoes -6.02837
